# xmcd
#
# Track frame offsets:
#	150
#	18289
#	41541
#	84882
#	107782
#	130505
#	161868
#	186130
#	201184
#	214970
#	236844
#	262831
#	278145
#	304224
#
# Disc length: 4351 seconds
#
# Revision: 0
# Processed by: cddbd v1.5.1PL0 Copyright (c) Steve Scherf et al.
# Submitted via: dBpowerAMP V4.0
#
DISCID=bd10fd0e
DTITLE=Mick Martin and the Blues Rockers - Good Time
DYEAR=1900
DGENRE=Blues
TTITLE0=Ridin' On The L&N
TTITLE1=Dimples
TTITLE2=Wee Wee Hours
TTITLE3=Back Door Man
TTITLE4=Good Time
TTITLE5=Little By Little
TTITLE6=The Hunter
TTITLE7=Backseat Boogie
TTITLE8=Can't Get Excited
TTITLE9=I'm Leavin'
TTITLE10=Don't Let My Baby Ride
TTITLE11=Twenty Nine Ways
TTITLE12=Born In Chicago
TTITLE13=Shake Your Moneymaker
EXTD=
EXTT0=
EXTT1=
EXTT2=
EXTT3=
EXTT4=
EXTT5=
EXTT6=
EXTT7=
EXTT8=
EXTT9=
EXTT10=
EXTT11=
EXTT12=
EXTT13=
PLAYORDER=
